# xmcd
#
# Track frame offsets:
#	150
#	19780
#	38650
#	58331
#	75121
#	97434
#	118976
#	136763
#	152398
#	172315
#	190964
#	208508
#	226550
#
# Disc length: 3290 seconds
#
# Revision: 0
# Processed by: cddbd v1.5.2PL0 Copyright (c) Steve Scherf et al.
# Submitted via: EasyCDDAExtractor 11.0.2.1
#
DISCID=a70cd80d
DTITLE=Crunch - The Product
DYEAR=2004
DGENRE=Rap
TTITLE0=Papercutz
TTITLE1=What Up Doe?
TTITLE2=Twinkle, Twinkle
TTITLE3=I Don't Give A ?
TTITLE4=How We Do
TTITLE5=Keep It Gangsta
TTITLE6=Shake What You Wanna Shake
TTITLE7=What's The Ticket Little Daddy?
TTITLE8=One More Chance
TTITLE9=Be About Your Hustle
TTITLE10=10 On The Paint
TTITLE11=You's A Customer
TTITLE12=The Life
EXTD=
EXTT0=
EXTT1=
EXTT2=
EXTT3=
EXTT4=
EXTT5=
EXTT6=
EXTT7=
EXTT8=
EXTT9=
EXTT10=
EXTT11=
EXTT12=
PLAYORDER=
